<mxfile host="app.diagrams.net" modified="2023-09-01T03:08:41.809Z" agent="Mozilla/5.0 (Macintosh; Intel Mac OS X 10_15_7) AppleWebKit/537.36 (KHTML, like Gecko) Chrome/116.0.0.0 Safari/537.36" version="21.7.1" etag="lf2v_d7t2_dxuZ6vgAMe" type="github">
  <diagram name="第 1 页" id="cART6XvVVNHVJ9oT3R6s">
    <mxGraphModel>
      <root>
        <mxCell id="0" />
        <mxCell id="1" parent="0" />
      </root>
    </mxGraphModel>
  </diagram>
</mxfile>
